<svg width="24" height="24" viewBox="0 0 24 24" fill="none" xmlns="http://www.w3.org/2000/svg">
<path d="M12.8166 5.32617C12.5673 5.43772 12.2911 5.49976 12.0003 5.49976C11.7096 5.49976 11.4333 5.43772 11.1841 5.32617L4.68457 15.8879C5.05014 16.1569 5.32089 16.5474 5.43734 16.9998H18.5634C18.6798 16.5474 18.9505 16.1569 19.3161 15.8879L12.8166 5.32617Z" fill="#835ED3" fill-opacity="0.4" style="fill:#835ED3;fill:color(display-p3 0.5137 0.3686 0.8275);fill-opacity:0.4;"/>
<path d="M2.0256 12.7206C2.49166 12.577 2.98681 12.4997 3.5 12.4997C3.67459 12.4997 3.84708 12.5086 4.01704 12.5261C4.00574 12.3521 4 12.1765 4 11.9996C4 9.29489 5.3423 6.90359 7.39711 5.45563C7.14145 4.85484 7 4.19376 7 3.49963C7 3.44486 7.0009 3.39029 7.00266 3.33594C4.01217 5.06463 2 8.29713 2 11.9996C2 12.242 2.00863 12.4825 2.0256 12.7206Z" fill="#835ED3" fill-opacity="0.4" style="fill:#835ED3;fill:color(display-p3 0.5137 0.3686 0.8275);fill-opacity:0.4;"/>
<path d="M19.9996 11.9996C19.9996 9.29489 18.6573 6.90359 16.6025 5.45563C16.8581 4.85484 16.9996 4.19376 16.9996 3.49963C16.9996 3.44486 16.9987 3.39029 16.997 3.33594C19.9874 5.06463 21.9995 8.29713 21.9995 11.9996C21.9995 12.242 21.9909 12.4825 21.974 12.7206C21.5079 12.577 21.0128 12.4997 20.4995 12.4997C20.3249 12.4997 20.1525 12.5086 19.9826 12.5261C19.9939 12.3521 19.9996 12.1765 19.9996 11.9996Z" fill="#835ED3" fill-opacity="0.4" style="fill:#835ED3;fill:color(display-p3 0.5137 0.3686 0.8275);fill-opacity:0.4;"/>
<path d="M16.7468 20.8042C16.3063 20.3041 15.9642 19.7155 15.7507 19.0684C14.6319 19.6632 13.3552 20.0004 11.9998 20.0004C10.6444 20.0004 9.36773 19.6632 8.24903 19.0684C8.03549 19.7155 7.69338 20.3041 7.25293 20.8042C8.66523 21.5672 10.2819 22.0003 11.9998 22.0003C13.7177 22.0003 15.3344 21.5671 16.7468 20.8042Z" fill="#835ED3" fill-opacity="0.4" style="fill:#835ED3;fill:color(display-p3 0.5137 0.3686 0.8275);fill-opacity:0.4;"/>
<path d="M14 3.5C14 4.60457 13.1046 5.5 12 5.5C10.8955 5.5 10 4.60457 10 3.5C10 2.39543 10.8955 1.5 12 1.5C13.1046 1.5 14 2.39543 14 3.5Z" fill="#8355E5" style="fill:#8355E5;fill:color(display-p3 0.5129 0.3344 0.8987);fill-opacity:1;"/>
<path d="M5.5 17.4999C5.5 18.6045 4.60457 19.5 3.5 19.5C2.39543 19.5 1.5 18.6045 1.5 17.4999C1.5 16.3954 2.39543 15.5 3.5 15.5C4.60457 15.5 5.5 16.3954 5.5 17.4999Z" fill="#8355E5" style="fill:#8355E5;fill:color(display-p3 0.5129 0.3344 0.8987);fill-opacity:1;"/>
<path d="M20.4999 19.5C21.6045 19.5 22.5 18.6045 22.5 17.4999C22.5 16.3954 21.6045 15.5 20.4999 15.5C19.3954 15.5 18.5 16.3954 18.5 17.4999C18.5 18.6045 19.3954 19.5 20.4999 19.5Z" fill="#8355E5" style="fill:#8355E5;fill:color(display-p3 0.5129 0.3344 0.8987);fill-opacity:1;"/>
</svg>
