<svg width="6" height="62" viewBox="0 0 6 62" fill="none" xmlns="http://www.w3.org/2000/svg">
<g clip-path="url(#clip0_867_17514)">
<path d="M3 5.5C4.38071 5.5 5.5 4.38071 5.5 3C5.5 1.61929 4.38071 0.5 3 0.5C1.61929 0.5 0.5 1.61929 0.5 3C0.5 4.38071 1.61929 5.5 3 5.5Z" fill="#0E0E13" stroke="#FF7D00" style="fill:#0E0E13;fill:color(display-p3 0.0549 0.0549 0.0745);fill-opacity:1;stroke:#FF7D00;stroke:color(display-p3 1.0000 0.4902 0.0000);stroke-opacity:1;"/>
<path d="M3 20C4.65685 20 6 18.6569 6 17C6 15.3431 4.65685 14 3 14C1.34315 14 0 15.3431 0 17C0 18.6569 1.34315 20 3 20Z" fill="#0E0E13" fill-opacity="0.8" style="fill:#0E0E13;fill:color(display-p3 0.0549 0.0549 0.0745);fill-opacity:0.8;"/>
<path opacity="0.8" d="M3 19.5C4.38071 19.5 5.5 18.3807 5.5 17C5.5 15.6193 4.38071 14.5 3 14.5C1.61929 14.5 0.5 15.6193 0.5 17C0.5 18.3807 1.61929 19.5 3 19.5Z" fill="#0E0E13" stroke="#FF7D00" style="fill:#0E0E13;fill:color(display-p3 0.0549 0.0549 0.0745);fill-opacity:1;stroke:#FF7D00;stroke:color(display-p3 1.0000 0.4902 0.0000);stroke-opacity:1;"/>
<path d="M3 34C4.65685 34 6 32.6569 6 31C6 29.3431 4.65685 28 3 28C1.34315 28 0 29.3431 0 31C0 32.6569 1.34315 34 3 34Z" fill="#0E0E13" fill-opacity="0.8" style="fill:#0E0E13;fill:color(display-p3 0.0549 0.0549 0.0745);fill-opacity:0.8;"/>
<path opacity="0.6" d="M3 33.5C4.38071 33.5 5.5 32.3807 5.5 31C5.5 29.6193 4.38071 28.5 3 28.5C1.61929 28.5 0.5 29.6193 0.5 31C0.5 32.3807 1.61929 33.5 3 33.5Z" fill="#0E0E13" stroke="#FF7D00" style="fill:#0E0E13;fill:color(display-p3 0.0549 0.0549 0.0745);fill-opacity:1;stroke:#FF7D00;stroke:color(display-p3 1.0000 0.4902 0.0000);stroke-opacity:1;"/>
<path opacity="0.4" d="M3 47.5C4.38071 47.5 5.5 46.3807 5.5 45C5.5 43.6193 4.38071 42.5 3 42.5C1.61929 42.5 0.5 43.6193 0.5 45C0.5 46.3807 1.61929 47.5 3 47.5Z" fill="#0E0E13" stroke="#FF7D00" style="fill:#0E0E13;fill:color(display-p3 0.0549 0.0549 0.0745);fill-opacity:1;stroke:#FF7D00;stroke:color(display-p3 1.0000 0.4902 0.0000);stroke-opacity:1;"/>
<path opacity="0.2" d="M3 61.5C4.38071 61.5 5.5 60.3807 5.5 59C5.5 57.6193 4.38071 56.5 3 56.5C1.61929 56.5 0.5 57.6193 0.5 59C0.5 60.3807 1.61929 61.5 3 61.5Z" fill="#0E0E13" stroke="#FF7D00" style="fill:#0E0E13;fill:color(display-p3 0.0549 0.0549 0.0745);fill-opacity:1;stroke:#FF7D00;stroke:color(display-p3 1.0000 0.4902 0.0000);stroke-opacity:1;"/>
</g>
<defs>
<clipPath id="clip0_867_17514">
<rect width="6" height="62" fill="white" style="fill:white;fill-opacity:1;"/>
</clipPath>
</defs>
</svg>
