<svg width="12" height="12" viewBox="0 0 12 12" fill="none" xmlns="http://www.w3.org/2000/svg">
<path d="M3.40239 11H3.37689C3.3004 11 3.19203 10.9429 3.19203 10.7573C3.19203 10.6788 3.21116 10.5717 3.26215 10.4433C3.57364 9.56897 3.81477 8.90602 3.99833 8.40136C4.37825 7.35684 4.51155 6.99036 4.51155 6.83155C4.51155 6.74839 4.47182 6.72455 4.4144 6.69009C4.40282 6.68315 4.39053 6.67577 4.37769 6.66738C3.98247 6.41756 3.80398 6.13919 3.80398 5.88223C3.80398 5.53248 4.12908 5.21128 4.69004 5.0257C5.62316 4.71558 5.70188 4.54897 5.96559 3.99085C6.09641 3.71397 6.27275 3.34074 6.62151 2.80585C6.68526 2.70592 6.76175 2.6631 6.83187 2.6631C6.94024 2.6631 7.02948 2.77016 7.02948 2.96288C7.02948 3.02712 7.01673 3.0985 6.99761 3.18415C6.88924 3.60528 6.66614 3.99072 6.36653 4.29051C7.38008 3.91934 9.66215 2.82013 9.66215 2.10635C9.66215 1.84226 9.34343 1.62812 8.51474 1.52819C8.23426 1.49251 7.96016 1.47823 7.69243 1.47823C4.5753 1.47823 2.3506 3.66238 2.25498 5.10421C2.07649 4.92577 2 4.72591 2 4.51178C2 3.61242 3.3259 2.49893 4.19283 1.9636C5.26374 1.29979 6.54502 1 7.63506 1C8.96096 1 10 1.44968 10 2.21342C10 2.3419 9.96813 2.48465 9.90438 2.63455C9.65943 3.19781 7.99474 4.02994 6.90407 4.57514C6.4053 4.82447 6.02658 5.01378 5.95857 5.08994C5.80528 5.25498 5.40661 6.18325 5.27193 6.49682C5.261 6.52228 5.2518 6.5437 5.24462 6.56031C5.28083 6.56792 5.3192 6.57594 5.35953 6.58438C6.45527 6.81354 8.9992 7.34559 8.9992 7.93076C8.9992 7.97359 8.98645 8.02356 8.95458 8.06638C8.90996 8.13062 8.83984 8.15917 8.76335 8.15917C8.71235 8.15917 8.66135 8.1449 8.61673 8.12348C8.53287 8.07767 8.48576 8.02745 8.43517 7.97353C8.32813 7.85942 8.20553 7.72872 7.68606 7.58815C6.1753 7.18844 5.51235 7.03854 5.20637 7.03854C4.97026 7.03854 4.94238 7.12182 4.89973 7.2492C4.89402 7.26626 4.88805 7.2841 4.88127 7.30264C3.62283 10.6977 3.56829 10.9392 3.43948 10.9891C3.428 10.9936 3.41594 10.9965 3.40239 11ZM4.77291 6.37473L4.80478 6.36759C4.84066 6.34464 4.8683 6.28014 5.06005 5.83264C5.10676 5.72365 5.1632 5.59193 5.23187 5.43255L5.24462 5.38972C5.24462 5.36831 5.2255 5.35403 5.19363 5.35403C5.02151 5.35403 4.47968 5.66096 4.30757 5.77516C4.1992 5.84654 4.16096 5.91792 4.16096 5.98929C4.16096 6.21056 4.63904 6.37473 4.77291 6.37473Z" fill="#FF7D00" style="fill:#FF7D00;fill:color(display-p3 1.0000 0.4902 0.0000);fill-opacity:1;"/>
<path d="M3.40239 11H3.37689C3.3004 11 3.19203 10.9429 3.19203 10.7573C3.19203 10.6788 3.21116 10.5717 3.26215 10.4433C3.57364 9.56897 3.81477 8.90602 3.99833 8.40136C4.37825 7.35684 4.51155 6.99036 4.51155 6.83155C4.51155 6.74839 4.47182 6.72455 4.4144 6.69009C4.40282 6.68315 4.39053 6.67577 4.37769 6.66738C3.98247 6.41756 3.80398 6.13919 3.80398 5.88223C3.80398 5.53248 4.12908 5.21128 4.69004 5.0257C5.62316 4.71558 5.70188 4.54897 5.96559 3.99085C6.09641 3.71397 6.27275 3.34074 6.62151 2.80585C6.68526 2.70592 6.76175 2.6631 6.83187 2.6631C6.94024 2.6631 7.02948 2.77016 7.02948 2.96288C7.02948 3.02712 7.01673 3.0985 6.99761 3.18415C6.88924 3.60528 6.66614 3.99072 6.36653 4.29051C7.38008 3.91934 9.66215 2.82013 9.66215 2.10635C9.66215 1.84226 9.34343 1.62812 8.51474 1.52819C8.23426 1.49251 7.96016 1.47823 7.69243 1.47823C4.5753 1.47823 2.3506 3.66238 2.25498 5.10421C2.07649 4.92577 2 4.72591 2 4.51178C2 3.61242 3.3259 2.49893 4.19283 1.9636C5.26374 1.29979 6.54502 1 7.63506 1C8.96096 1 10 1.44968 10 2.21342C10 2.3419 9.96813 2.48465 9.90438 2.63455C9.65943 3.19781 7.99474 4.02994 6.90407 4.57514C6.4053 4.82447 6.02658 5.01378 5.95857 5.08994C5.80528 5.25498 5.40661 6.18325 5.27193 6.49682C5.261 6.52228 5.2518 6.5437 5.24462 6.56031C5.28083 6.56792 5.3192 6.57594 5.35953 6.58438C6.45527 6.81354 8.9992 7.34559 8.9992 7.93076C8.9992 7.97359 8.98645 8.02356 8.95458 8.06638C8.90996 8.13062 8.83984 8.15917 8.76335 8.15917C8.71235 8.15917 8.66135 8.1449 8.61673 8.12348C8.53287 8.07767 8.48576 8.02745 8.43517 7.97353C8.32813 7.85942 8.20553 7.72872 7.68606 7.58815C6.1753 7.18844 5.51235 7.03854 5.20637 7.03854C4.97026 7.03854 4.94238 7.12182 4.89973 7.2492C4.89402 7.26626 4.88805 7.2841 4.88127 7.30264C3.62283 10.6977 3.56829 10.9392 3.43948 10.9891C3.428 10.9936 3.41594 10.9965 3.40239 11ZM4.77291 6.37473L4.80478 6.36759C4.84066 6.34464 4.8683 6.28014 5.06005 5.83264C5.10676 5.72365 5.1632 5.59193 5.23187 5.43255L5.24462 5.38972C5.24462 5.36831 5.2255 5.35403 5.19363 5.35403C5.02151 5.35403 4.47968 5.66096 4.30757 5.77516C4.1992 5.84654 4.16096 5.91792 4.16096 5.98929C4.16096 6.21056 4.63904 6.37473 4.77291 6.37473Z" stroke="#FF7D00" style="stroke:#FF7D00;stroke:color(display-p3 1.0000 0.4902 0.0000);stroke-opacity:1;"/>
</svg>
