<svg width="24" height="24" viewBox="0 0 24 24" fill="none" xmlns="http://www.w3.org/2000/svg">
<path d="M12.8156 5.32617C12.5664 5.43772 12.2901 5.49976 11.9994 5.49976C11.7086 5.49976 11.4324 5.43772 11.1831 5.32617L4.68359 15.8879C5.04916 16.1569 5.31992 16.5474 5.43637 16.9998H18.5624C18.6788 16.5474 18.9495 16.1569 19.3152 15.8879L12.8156 5.32617Z" fill="#835ED3" fill-opacity="0.4" style="fill:#835ED3;fill:color(display-p3 0.5137 0.3686 0.8275);fill-opacity:0.4;"/>
<path d="M2.0256 12.7211C2.49166 12.5774 2.98681 12.5002 3.5 12.5002C3.67459 12.5002 3.84708 12.509 4.01704 12.5266C4.00574 12.3526 4 12.177 4 12.0001C4 9.29537 5.3423 6.90407 7.39711 5.45612C7.14145 4.85533 7 4.19425 7 3.50012C7 3.44535 7.0009 3.39077 7.00266 3.33643C4.01217 5.06512 2 8.29762 2 12.0001C2 12.2425 2.00863 12.483 2.0256 12.7211Z" fill="#835ED3" fill-opacity="0.4" style="fill:#835ED3;fill:color(display-p3 0.5137 0.3686 0.8275);fill-opacity:0.4;"/>
<path d="M20.0006 12.0001C20.0006 9.29537 18.6583 6.90407 16.6035 5.45612C16.8591 4.85533 17.0006 4.19425 17.0006 3.50012C17.0006 3.44535 16.9996 3.39077 16.998 3.33643C19.9884 5.06512 22.0005 8.29762 22.0005 12.0001C22.0005 12.2425 21.9919 12.483 21.975 12.7211C21.5089 12.5774 21.0138 12.5002 20.5005 12.5002C20.3259 12.5002 20.1535 12.509 19.9836 12.5266C19.9948 12.3526 20.0006 12.177 20.0006 12.0001Z" fill="#835ED3" fill-opacity="0.4" style="fill:#835ED3;fill:color(display-p3 0.5137 0.3686 0.8275);fill-opacity:0.4;"/>
<path d="M16.7478 20.8037C16.3072 20.3036 15.9651 19.715 15.7516 19.0679C14.6329 19.6627 13.3562 19.9999 12.0008 19.9999C10.6454 19.9999 9.3687 19.6627 8.25 19.0679C8.03646 19.715 7.69435 20.3036 7.25391 20.8037C8.66621 21.5668 10.2829 21.9998 12.0008 21.9998C13.7187 21.9998 15.3354 21.5666 16.7478 20.8037Z" fill="#835ED3" fill-opacity="0.4" style="fill:#835ED3;fill:color(display-p3 0.5137 0.3686 0.8275);fill-opacity:0.4;"/>
<path d="M14 3.5C14 4.60457 13.1046 5.5 12 5.5C10.8955 5.5 10 4.60457 10 3.5C10 2.39543 10.8955 1.5 12 1.5C13.1046 1.5 14 2.39543 14 3.5Z" fill="#A761FF" style="fill:#A761FF;fill:color(display-p3 0.6538 0.3818 1.0000);fill-opacity:1;"/>
<path d="M5.5 17.4999C5.5 18.6045 4.60457 19.5 3.5 19.5C2.39543 19.5 1.5 18.6045 1.5 17.4999C1.5 16.3954 2.39543 15.5 3.5 15.5C4.60457 15.5 5.5 16.3954 5.5 17.4999Z" fill="#A761FF" style="fill:#A761FF;fill:color(display-p3 0.6538 0.3818 1.0000);fill-opacity:1;"/>
<path d="M20.4999 19.5C21.6045 19.5 22.5 18.6045 22.5 17.4999C22.5 16.3954 21.6045 15.5 20.4999 15.5C19.3954 15.5 18.5 16.3954 18.5 17.4999C18.5 18.6045 19.3954 19.5 20.4999 19.5Z" fill="#A761FF" style="fill:#A761FF;fill:color(display-p3 0.6538 0.3818 1.0000);fill-opacity:1;"/>
</svg>
