<svg width="40" height="40" viewBox="0 0 40 40" fill="none" xmlns="http://www.w3.org/2000/svg">
<g clip-path="url(#clip0_907_17460)">
<path d="M37.3863 27.4959L37.418 27.5H37.4499C38.0085 27.5 38.5717 27.2875 39.1038 26.9802C39.6406 26.67 40.1837 26.2411 40.7119 25.7566C41.7671 24.7884 42.8124 23.5512 43.686 22.4622C43.8201 22.2988 43.9483 22.1436 44.0699 21.9965C44.4296 21.5612 44.731 21.1965 44.9544 20.8988C45.1049 20.6981 45.2342 20.5095 45.3273 20.335C45.4163 20.168 45.5 19.964 45.5 19.7437C45.5 19.5628 45.4421 19.3864 45.3128 19.2371C45.1996 19.1066 45.0549 19.0242 44.9292 18.9662L44.6363 18.831L44.3924 19.0421C44.0914 19.3026 43.8606 19.5849 43.6353 19.8924C43.5368 20.0269 43.4365 20.1703 43.3324 20.3191C43.3185 20.3389 43.3046 20.3588 43.2906 20.3788C43.1702 20.5507 43.0417 20.7332 42.8953 20.9317C42.3154 21.718 41.4379 22.7782 39.742 24.2916C39.2974 24.6818 38.9325 24.9453 38.6354 25.1092C38.3345 25.2751 38.1345 25.3214 38.0107 25.3214C37.9304 25.3214 37.8837 25.3011 37.8485 25.2753C37.8077 25.2454 37.7549 25.1871 37.7027 25.0754C37.5933 24.8412 37.5294 24.4654 37.5294 23.9727C37.5294 23.0669 37.747 21.9338 38.0257 21.0222C38.1648 20.5673 38.3129 20.1881 38.4452 19.9321C38.4804 19.8639 38.5117 19.8101 38.5381 19.7689L38.5571 19.7725L38.6039 19.7815H38.6515C39.0628 19.7815 39.3914 19.5466 39.5979 19.275C39.8071 18.9996 39.9326 18.639 39.9326 18.2647C39.9326 18.0921 39.9028 17.9232 39.8468 17.7597C39.7429 17.4409 39.4091 16.8981 38.9355 16.4364C38.4522 15.9653 37.7428 15.5 36.8692 15.5C36.6634 15.5 36.4414 15.5293 36.2243 15.585L36.2137 15.5877L36.2032 15.5909C35.794 15.7151 35.2696 15.9449 34.9622 16.1814L34.9621 16.1814L34.9598 16.1833C34.0911 16.8599 32.6301 18.5358 31.3877 20.7214L31.3875 20.7219C30.6828 21.9649 30.2154 22.887 29.9234 23.5941C29.6333 24.2964 29.5 24.8239 29.5 25.2668C29.5 25.56 29.5516 25.8037 29.6314 26.0186L29.6387 26.0381L29.6475 26.057C29.9505 26.7025 30.4396 27.1855 31.1354 27.222L31.1484 27.2227H31.1615C31.3427 27.2227 31.4955 27.1475 31.5888 27.0934C31.6944 27.0321 31.7996 26.952 31.8997 26.8666C32.1009 26.695 32.3287 26.461 32.5667 26.1968C33.0448 25.6659 33.6068 24.964 34.1468 24.2715C34.4106 23.9331 34.6654 23.602 34.9051 23.2905C35.0527 23.0987 35.1945 22.9144 35.3292 22.7404C35.2542 23.2521 35.1876 23.8368 35.1876 24.4118C35.1876 25.0331 35.2651 25.6838 35.5228 26.2331C35.7908 26.8042 36.2527 27.2587 36.9674 27.4387L36.9963 27.4459L37.0259 27.4497L37.3863 27.4959ZM38.6184 19.6654C38.6184 19.6659 38.6146 19.67 38.6071 19.6758C38.6147 19.6678 38.6184 19.6649 38.6184 19.6654ZM34.4742 20.9351C34.1178 21.3578 33.7597 21.7788 33.4185 22.1729C33.7699 21.5956 34.1965 20.9109 34.7072 20.1051C35.3046 19.1754 35.9552 18.543 36.5259 18.1468C36.7384 17.9993 36.9344 17.8881 37.1082 17.8063C37.1071 17.8076 37.106 17.8088 37.1049 17.8101C36.9351 18.0018 36.7047 18.2724 36.4358 18.5921C36.1997 18.8728 35.9363 19.1884 35.6549 19.5255C35.2853 19.9682 34.8848 20.4481 34.4742 20.9351Z" fill="#FF7D00" stroke="#FF7D00" style="fill:#FF7D00;fill:color(display-p3 1.0000 0.4902 0.0000);fill-opacity:1;stroke:#FF7D00;stroke:color(display-p3 1.0000 0.4902 0.0000);stroke-opacity:1;"/>
<path d="M25.6376 28.4968C25.6377 28.4968 25.6365 28.497 25.6341 28.4972C25.6363 28.4969 25.6376 28.4968 25.6376 28.4968ZM32.7511 11.048C32.8576 10.844 32.9423 10.6995 32.9993 10.6136H33.1292H33.1737C33.4008 10.6136 33.6288 10.5282 33.8069 10.3863C33.9918 10.2389 34.1493 10.0078 34.1732 9.70802L34.1748 9.68812V9.66815C34.1748 9.26015 34.0075 8.77144 33.4913 8.56847C33.3816 8.52484 33.2637 8.5 33.1403 8.5C32.8382 8.5 32.5713 8.63379 32.3568 8.79176C32.1381 8.9528 31.9299 9.17126 31.7345 9.41639C31.3434 9.90721 30.9526 10.5705 30.5897 11.2906C30.4397 11.5851 29.9298 12.7675 29.4691 13.8469C29.2357 14.3939 29.011 14.9237 28.8448 15.3167L28.6452 15.7888L28.5899 15.92L28.5754 15.9544L28.5721 15.9621C28.5222 16.075 28.4718 16.1888 28.421 16.3035C27.5801 18.2023 26.6356 20.3349 25.8871 22.3504C25.0988 24.473 24.5 26.5354 24.5 28.0869C24.5 28.4051 24.5401 28.7322 24.6818 28.9967C24.7565 29.1363 24.8649 29.268 25.0173 29.363C25.1713 29.4591 25.342 29.5 25.5122 29.5C25.5739 29.5 25.6388 29.4994 25.6976 29.4953C25.7507 29.4916 25.8388 29.4829 25.93 29.4487C26.0378 29.4083 26.161 29.3276 26.24 29.1818C26.3079 29.0565 26.3129 28.9358 26.3129 28.8775C26.3129 28.7435 26.268 28.6361 26.2221 28.5617C26.1804 28.4941 26.1325 28.4454 26.1108 28.4237C26.108 28.4209 26.1051 28.4181 26.1023 28.4153C26.1019 28.4131 26.1014 28.4106 26.101 28.408C26.0949 28.3728 26.0902 28.3197 26.0902 28.2428C26.0902 27.6786 26.2571 26.8546 26.5592 25.8408C26.8579 24.8381 27.2762 23.69 27.7517 22.4934C28.5962 20.3679 29.6103 18.1159 30.4327 16.2897C30.5366 16.0591 30.6374 15.8352 30.7345 15.6192L30.7345 15.6192L30.7375 15.6122L32.3061 11.9744C32.4536 11.6469 32.6101 11.3181 32.7511 11.048ZM26.0707 28.3845C26.0703 28.3841 26.0704 28.3841 26.0709 28.3847L26.0707 28.3845Z" fill="#FF7D00" stroke="#FF7D00" style="fill:#FF7D00;fill:color(display-p3 1.0000 0.4902 0.0000);fill-opacity:1;stroke:#FF7D00;stroke:color(display-p3 1.0000 0.4902 0.0000);stroke-opacity:1;"/>
<path d="M17.0333 28.4975L17.0581 28.5H17.083H17.0973C17.2351 28.5 17.3652 28.4578 17.452 28.425C17.5509 28.3877 17.6554 28.338 17.758 28.2836C17.9641 28.1744 18.1942 28.0297 18.4113 27.8777C18.6284 27.7257 18.8434 27.5588 19.0172 27.402C19.1037 27.324 19.1865 27.2427 19.2558 27.1624C19.3114 27.0981 19.385 27.0045 19.434 26.8929C19.4446 26.8765 19.462 26.8508 19.4882 26.814C19.5414 26.739 19.6185 26.6351 19.7184 26.5023C19.8255 26.3602 19.9536 26.1919 20.1006 25.9989C20.2296 25.8294 20.3733 25.6407 20.5301 25.4337C21.1958 24.5549 22.0747 23.3771 22.9506 22.1017C23.8252 20.8282 24.7039 19.4474 25.3657 18.1628C26.0162 16.9002 26.5 15.6519 26.5 14.669C26.5 14.2735 26.4153 13.875 26.2091 13.5475L26.2033 13.5382L26.1971 13.5292C25.9175 13.1254 25.4884 12.8723 25.0702 12.7206C24.6472 12.5671 24.1892 12.5 23.7886 12.5C23.5476 12.5 23.3023 12.5227 23.0909 12.5782L23.2179 13.0618L23.093 12.5777C22.9978 12.6022 22.8981 12.6262 22.8162 12.6435C22.775 12.6523 22.742 12.6586 22.7181 12.6625C22.7104 12.6638 22.7049 12.6645 22.7014 12.665C22.4937 12.6695 22.2375 12.7532 22.0123 12.8383C21.7547 12.9356 21.4457 13.072 21.1094 13.233C20.4353 13.5557 19.6244 13.9901 18.8434 14.444C18.0636 14.8972 17.3026 15.3762 16.7317 15.789C16.448 15.9941 16.1983 16.192 16.0146 16.369C15.9236 16.4567 15.836 16.5514 15.7676 16.6493C15.7105 16.7312 15.6128 16.8894 15.6128 17.09V17.1106V17.1721L15.6278 17.2319C15.7049 17.5402 15.913 17.8215 16.1149 18.0434C16.3276 18.2771 16.5858 18.5006 16.8361 18.6923C17.0874 18.8847 17.3424 19.054 17.5556 19.1775C17.6617 19.2389 17.7641 19.2929 17.855 19.3332C17.8798 19.3442 17.9057 19.3551 17.9323 19.3653C17.8822 19.4492 17.8243 19.5493 17.7599 19.6679C16.663 21.5556 15.8561 23.0061 15.3229 24.122C14.799 25.2183 14.5 26.0673 14.5 26.7225C14.5 27.0185 14.5611 27.2965 14.7074 27.5418C14.854 27.7876 15.0641 27.9639 15.3023 28.0917C15.7533 28.3335 16.3673 28.431 17.0333 28.4975ZM19.425 26.9076C19.4249 26.9077 19.4258 26.9061 19.428 26.9025C19.4262 26.9058 19.4251 26.9076 19.425 26.9076ZM16.7404 26.9132C16.7092 26.934 16.6871 26.9467 16.6733 26.954H16.6726C16.6721 26.952 16.6716 26.95 16.6711 26.9479C16.6625 26.9098 16.6556 26.8531 16.6556 26.774C16.6556 26.4757 16.7536 26.0277 16.9322 25.4817C17.1069 24.9478 17.344 24.3633 17.59 23.8089C18.0794 22.7058 18.5868 21.76 18.6666 21.6239C19.0548 20.9957 19.2754 20.6067 19.424 20.341C19.436 20.3197 19.4473 20.2994 19.4581 20.2801C19.5665 20.0862 19.621 19.9887 19.6767 19.9074C19.8603 19.9019 20.0418 19.8585 20.1959 19.7667C20.3491 19.6754 20.5506 19.4823 20.5506 19.1813C20.5506 19.0614 20.52 18.9422 20.4543 18.8343C20.4424 18.8148 20.4299 18.7965 20.417 18.7794C20.644 18.4781 20.7725 18.3164 20.8596 18.2243C20.8785 18.2044 20.8919 18.1916 20.9007 18.1837C20.9045 18.183 20.9089 18.1822 20.9141 18.1813C21.019 18.1655 21.149 18.1329 21.2675 18.059C21.3475 18.0091 21.4439 17.9239 21.5045 17.801C21.5346 17.7812 21.5735 17.7578 21.6191 17.7331C21.6891 17.6952 21.7607 17.662 21.8192 17.6397C21.8455 17.6297 21.8647 17.6236 21.8767 17.6203C21.9799 17.6164 22.1712 17.5869 22.3177 17.4093C22.428 17.2757 22.4551 17.1155 22.465 17.0573C22.4653 17.0555 22.4656 17.0537 22.4659 17.0521C22.4761 16.9927 22.4857 16.9152 22.4958 16.8338C22.4988 16.8102 22.5017 16.7863 22.5048 16.7623C22.5194 16.647 22.539 16.5018 22.5698 16.3169L22.6525 15.8192L22.1541 15.7409C22.0496 15.7245 21.9627 15.7083 21.8758 15.692C21.8306 15.6836 21.7855 15.6751 21.7379 15.6666C21.611 15.6441 21.4672 15.6216 21.3204 15.6216C21.1278 15.6216 20.9371 15.6595 20.7416 15.7618C20.558 15.858 20.3926 15.9994 20.2282 16.171C19.9071 16.506 19.4959 17.0588 18.8763 17.9079L18.8763 17.9079L18.874 17.911C18.8177 17.9895 18.763 18.0621 18.7136 18.1245C18.6023 18.0603 18.4692 17.9764 18.3305 17.8831C17.9891 17.6533 17.6935 17.4198 17.6037 17.319C17.6026 17.3177 17.6016 17.3165 17.6005 17.3152C17.6342 17.287 17.6784 17.2537 17.7363 17.2142L17.7369 17.2138C19.4526 16.0363 20.8106 15.2244 21.8662 14.7087C22.9365 14.1858 23.6431 13.9945 24.0739 13.9945C24.3409 13.9945 24.4385 14.0656 24.4781 14.1092C24.5259 14.1617 24.5869 14.2815 24.5869 14.5453C24.5869 14.8679 24.4943 15.31 24.3019 15.8599C24.112 16.403 23.8357 17.021 23.4945 17.6856C22.8121 19.0146 21.886 20.4989 20.9201 21.8932C19.9545 23.2871 18.957 24.5796 18.1365 25.5251C17.7253 25.999 17.3659 26.3772 17.082 26.6357C16.9394 26.7656 16.8254 26.8566 16.7404 26.9132ZM21.887 17.6179C21.887 17.6179 21.8863 17.6181 21.8848 17.6183L21.887 17.6179ZM18.9265 18.2326C18.9267 18.2328 18.9239 18.232 18.9178 18.2297C18.9233 18.2313 18.9264 18.2324 18.9265 18.2326ZM18.1203 19.0562C18.1229 19.0501 18.1239 19.0491 18.1214 19.054C18.1211 19.0547 18.1207 19.0554 18.1203 19.0562Z" fill="#FF7D00" stroke="#FF7D00" style="fill:#FF7D00;fill:color(display-p3 1.0000 0.4902 0.0000);fill-opacity:1;stroke:#FF7D00;stroke:color(display-p3 1.0000 0.4902 0.0000);stroke-opacity:1;"/>
<path d="M1.80478 29.5H1.86216L1.91804 29.487C1.91982 29.4866 1.92221 29.4861 1.92517 29.4854C1.95723 29.4784 2.05548 29.4569 2.1516 29.4051C2.27014 29.3413 2.3563 29.2525 2.42491 29.1586C2.54287 28.9973 2.6665 28.7368 2.83905 28.3375C3.04174 27.8686 3.34214 27.133 3.81336 25.9792C4.17332 25.0978 4.63296 23.9723 5.22488 22.5352L5.22583 22.5328C5.24227 22.4923 5.25661 22.4538 5.26771 22.4239L5.27008 22.4175C5.27632 22.4008 5.28139 22.3872 5.28581 22.3758C5.31349 22.3724 5.35446 22.3694 5.41275 22.3694C5.66355 22.3694 6.10384 22.4269 6.89063 22.5845C7.66655 22.7399 8.74548 22.9853 10.255 23.3448C10.9842 23.5225 11.2428 23.677 11.3737 23.7787C11.4275 23.8205 11.4602 23.8519 11.5065 23.8965C11.5314 23.9204 11.5602 23.9481 11.5983 23.9833C11.7004 24.0774 11.8258 24.179 12.0129 24.271L12.0239 24.2764L12.0352 24.2813C12.174 24.3412 12.3436 24.3865 12.5267 24.3865C12.7845 24.3865 13.0901 24.2983 13.2999 24.0316C13.4403 23.8584 13.4984 23.6559 13.4984 23.4754C13.4984 23.1212 13.2796 22.8599 13.0858 22.6929C12.8816 22.5168 12.6123 22.3642 12.3222 22.2297C11.7374 21.9588 10.9563 21.7119 10.1374 21.4938C8.79486 21.1363 7.28317 20.8392 6.2217 20.6379C6.3323 20.4098 6.46225 20.1457 6.596 19.8835C6.74015 19.6009 6.88573 19.3265 7.0137 19.1056C7.07778 18.995 7.13477 18.9025 7.18287 18.8312C7.20682 18.7958 7.22674 18.7683 7.2426 18.748C7.25085 18.7374 7.25682 18.7303 7.26056 18.726C7.26719 18.7216 7.2854 18.7093 7.32085 18.6886C7.38073 18.6538 7.46483 18.6092 7.5743 18.5547C7.79263 18.446 8.08703 18.3098 8.43915 18.1502C8.61657 18.0697 8.80791 17.9836 9.00972 17.8928C9.60248 17.6262 10.2856 17.3189 10.9716 16.9943C11.8907 16.5594 12.833 16.0852 13.5952 15.6219C13.976 15.3905 14.3224 15.1554 14.6021 14.9229C14.8722 14.6984 15.1225 14.4422 15.259 14.1597L15.2608 14.1558C15.412 13.8358 15.5 13.5057 15.5 13.1842C15.5 12.1981 14.7489 11.5226 13.8307 11.1188C12.8951 10.7074 11.6377 10.5 10.2701 10.5C8.01787 10.5 5.36921 11.0555 3.14242 12.2976C2.24829 12.7946 1.11668 13.5594 0.200841 14.4172C-0.257173 14.8461 -0.67412 15.3103 -0.979653 15.7875C-1.28229 16.2602 -1.5 16.7838 -1.5 17.3212C-1.5 17.8599 -1.27795 18.3512 -0.824478 18.7593L-0.0663379 19.4414L0.00860822 18.4243C0.0471864 17.9008 0.307983 17.2573 0.815431 16.5698C1.31884 15.8878 2.04473 15.1907 2.96312 14.564C4.79919 13.3109 7.37256 12.3608 10.3849 12.3608C10.9043 12.3608 11.4333 12.3857 11.9726 12.4475L11.9726 12.4475L11.9755 12.4478C12.785 12.5357 13.2908 12.6694 13.5797 12.8099C13.7215 12.8789 13.7851 12.9372 13.8102 12.9682C13.8215 12.9821 13.8241 12.9893 13.8242 12.9897L13.8242 12.9897C13.8244 12.9901 13.8243 12.9899 13.8242 12.9896C13.8242 12.9893 13.8243 12.9898 13.8243 12.9914C13.8243 13.0054 13.816 13.0746 13.7188 13.2092C13.6247 13.3396 13.474 13.4938 13.2626 13.6671C12.8404 14.013 12.2399 14.3836 11.5548 14.7466C10.7881 15.1528 9.94117 15.536 9.17054 15.8518C9.29599 15.6009 9.39875 15.3389 9.47596 15.0689L9.47838 15.0604L9.48051 15.0519C9.51964 14.8941 9.55896 14.7146 9.55896 14.5332C9.55896 14.2777 9.49324 14.0254 9.33623 13.825C9.17367 13.6174 8.93205 13.4936 8.66374 13.4936C8.32651 13.4936 8.03514 13.6804 7.83676 13.9591C7.29699 14.7043 6.95629 15.2828 6.70553 15.7432C6.61371 15.9118 6.53836 16.0555 6.47233 16.1814C6.34906 16.4165 6.25827 16.5896 6.15348 16.7471C6.01672 16.9525 5.87461 17.0977 5.61859 17.2433C5.3419 17.4006 4.92874 17.5603 4.23701 17.7672C3.63167 17.9474 3.11711 18.2035 2.74402 18.5301C2.36908 18.8582 2.10797 19.2869 2.10797 19.788C2.10797 20.5211 2.6605 21.1507 3.49643 21.6292C3.48119 21.6867 3.45904 21.7596 3.42775 21.8525C3.34772 22.0901 3.21931 22.4251 3.02632 22.9098C2.89413 23.2417 2.73164 23.6438 2.5359 24.1281C2.16849 25.0373 1.68394 26.2363 1.06277 27.8053C0.942324 28.0812 0.884063 28.3397 0.884063 28.5632C0.884063 28.8459 0.980284 29.0975 1.173 29.2748C1.35412 29.4415 1.57469 29.5 1.75378 29.5H1.80478ZM4.04008 20.0217C4.00768 20.007 3.97818 19.9924 3.95159 19.9782C4.10234 19.893 4.3393 19.7686 4.58966 19.6497C4.48772 19.8637 4.41456 20.0164 4.35927 20.1279C4.35808 20.1303 4.35689 20.1327 4.35573 20.135C4.2555 20.1075 4.14325 20.0685 4.04008 20.0217ZM3.78938 19.8648C3.78951 19.8648 3.7907 19.8661 3.79256 19.8687C3.79018 19.8661 3.78925 19.8648 3.78938 19.8648Z" fill="#FF7D00" stroke="#FF7D00" style="fill:#FF7D00;fill:color(display-p3 1.0000 0.4902 0.0000);fill-opacity:1;stroke:#FF7D00;stroke:color(display-p3 1.0000 0.4902 0.0000);stroke-opacity:1;"/>
</g>
<defs>
<clipPath id="clip0_907_17460">
<rect width="40" height="40" fill="white" style="fill:white;fill-opacity:1;"/>
</clipPath>
</defs>
</svg>
