<svg width="52" height="24" viewBox="0 0 52 24" fill="none" xmlns="http://www.w3.org/2000/svg">
<path d="M41.3863 19.4959L41.418 19.5H41.4499C42.0085 19.5 42.5717 19.2875 43.1038 18.9802C43.6406 18.67 44.1837 18.2411 44.7119 17.7566C45.7671 16.7884 46.8124 15.5512 47.686 14.4621C47.8201 14.2988 47.9483 14.1436 48.0699 13.9965C48.4296 13.5612 48.731 13.1965 48.9544 12.8988C49.1049 12.6981 49.2342 12.5095 49.3273 12.335C49.4163 12.168 49.5 11.964 49.5 11.7437C49.5 11.5628 49.4421 11.3864 49.3128 11.2371C49.1996 11.1066 49.0549 11.0242 48.9292 10.9662L48.6363 10.831L48.3924 11.0421C48.0914 11.3026 47.8606 11.5849 47.6353 11.8924C47.5368 12.0269 47.4365 12.1703 47.3324 12.3191C47.3185 12.3389 47.3046 12.3588 47.2906 12.3788C47.1702 12.5507 47.0417 12.7332 46.8953 12.9317C46.3154 13.718 45.4379 14.7782 43.742 16.2916C43.2974 16.6818 42.9325 16.9453 42.6354 17.1092C42.3345 17.2751 42.1345 17.3214 42.0107 17.3214C41.9304 17.3214 41.8837 17.3011 41.8485 17.2753C41.8077 17.2454 41.7549 17.1871 41.7027 17.0754C41.5933 16.8412 41.5294 16.4654 41.5294 15.9727C41.5294 15.0669 41.747 13.9338 42.0257 13.0222C42.1648 12.5673 42.3129 12.1881 42.4452 11.9321C42.4804 11.8639 42.5117 11.8101 42.5381 11.7689L42.5571 11.7725L42.6039 11.7815H42.6515C43.0628 11.7815 43.3914 11.5466 43.5979 11.275C43.8071 10.9996 43.9326 10.639 43.9326 10.2647C43.9326 10.0921 43.9028 9.92316 43.8468 9.75973C43.7429 9.44088 43.4091 8.89805 42.9355 8.43636C42.4522 7.96527 41.7428 7.5 40.8692 7.5C40.6634 7.5 40.4414 7.52933 40.2243 7.585L40.2137 7.58772L40.2032 7.5909C39.794 7.71515 39.2696 7.94495 38.9622 8.18143L38.9621 8.18142L38.9598 8.18327C38.0911 8.85987 36.6301 10.5358 35.3877 12.7214L35.3875 12.7219C34.6828 13.9649 34.2154 14.887 33.9234 15.5941C33.6333 16.2964 33.5 16.8239 33.5 17.2668C33.5 17.56 33.5516 17.8037 33.6314 18.0186L33.6387 18.0381L33.6475 18.057C33.9505 18.7025 34.4396 19.1855 35.1354 19.222L35.1484 19.2227H35.1615C35.3427 19.2227 35.4955 19.1475 35.5888 19.0934C35.6944 19.0321 35.7996 18.952 35.8997 18.8666C36.1009 18.695 36.3287 18.461 36.5667 18.1968C37.0448 17.6659 37.6068 16.964 38.1468 16.2715C38.4106 15.9331 38.6654 15.602 38.9051 15.2905C39.0527 15.0987 39.1945 14.9144 39.3292 14.7404C39.2542 15.2521 39.1876 15.8368 39.1876 16.4118C39.1876 17.0331 39.2651 17.6838 39.5228 18.2331C39.7908 18.8042 40.2527 19.2587 40.9674 19.4387L40.9963 19.4459L41.0259 19.4497L41.3863 19.4959ZM42.6184 11.6654C42.6184 11.6659 42.6146 11.67 42.6071 11.6758C42.6147 11.6678 42.6184 11.6649 42.6184 11.6654ZM38.4742 12.9351C38.1178 13.3578 37.7597 13.7788 37.4185 14.1729C37.7699 13.5957 38.1965 12.911 38.7072 12.1052C39.3046 11.1754 39.9552 10.543 40.5259 10.1468C40.7384 9.99932 40.9344 9.88814 41.1082 9.80633C41.1071 9.80758 41.106 9.80885 41.1049 9.81011C40.9351 10.0018 40.7047 10.2724 40.4358 10.5921C40.1997 10.8728 39.9363 11.1884 39.6549 11.5255C39.2853 11.9682 38.8848 12.4481 38.4742 12.9351Z" fill="#FF7D00" stroke="#FF7D00" style="fill:#FF7D00;fill:color(display-p3 1.0000 0.4902 0.0000);fill-opacity:1;stroke:#FF7D00;stroke:color(display-p3 1.0000 0.4902 0.0000);stroke-opacity:1;"/>
<path d="M29.6376 20.4968C29.6377 20.4968 29.6365 20.497 29.6341 20.4972C29.6363 20.4969 29.6375 20.4968 29.6376 20.4968ZM36.7511 3.04797C36.8576 2.84397 36.9423 2.69948 36.9993 2.61359H37.1292H37.1737C37.4008 2.61359 37.6288 2.52823 37.8069 2.38625C37.9918 2.23888 38.1493 2.00784 38.1732 1.70802L38.1748 1.68812V1.66815C38.1748 1.26015 38.0075 0.771437 37.4913 0.568474C37.3816 0.524841 37.2637 0.5 37.1403 0.5C36.8382 0.5 36.5713 0.633794 36.3568 0.791755C36.1381 0.952804 35.9299 1.17126 35.7345 1.41639C35.3434 1.90723 34.9526 2.57053 34.5896 3.29068C34.4396 3.58535 33.9297 4.76763 33.4691 5.8469C33.2357 6.39388 33.011 6.92368 32.8448 7.31668L32.6452 7.78879L32.5899 7.91996L32.5754 7.95443L32.5721 7.96211C32.5222 8.07501 32.4718 8.18884 32.421 8.30353C31.5801 10.2023 30.6356 12.3349 29.8871 14.3504C29.0988 16.473 28.5 18.5354 28.5 20.0869C28.5 20.4051 28.5401 20.7322 28.6818 20.9967C28.7565 21.1363 28.8649 21.268 29.0173 21.363C29.1713 21.4591 29.342 21.5 29.5122 21.5C29.5739 21.5 29.6388 21.4994 29.6976 21.4953C29.7507 21.4916 29.8388 21.4829 29.93 21.4487C30.0378 21.4083 30.161 21.3276 30.24 21.1818C30.3079 21.0565 30.3129 20.9358 30.3129 20.8775C30.3129 20.7435 30.268 20.6361 30.2221 20.5617C30.1804 20.4941 30.1325 20.4454 30.1108 20.4237C30.108 20.4209 30.1051 20.4181 30.1023 20.4153C30.1019 20.4131 30.1014 20.4106 30.101 20.408C30.0949 20.3728 30.0902 20.3197 30.0902 20.2428C30.0902 19.6786 30.2571 18.8546 30.5592 17.8408C30.8579 16.8381 31.2762 15.69 31.7517 14.4934C32.5962 12.3679 33.6103 10.1159 34.4327 8.28975C34.5366 8.05905 34.6374 7.83515 34.7345 7.61916L34.7345 7.61918L34.7375 7.61223L36.3061 3.97445C36.4536 3.64692 36.6101 3.3181 36.7511 3.04797ZM30.0707 20.3845C30.0703 20.3841 30.0704 20.3841 30.0709 20.3847L30.0707 20.3845Z" fill="#FF7D00" stroke="#FF7D00" style="fill:#FF7D00;fill:color(display-p3 1.0000 0.4902 0.0000);fill-opacity:1;stroke:#FF7D00;stroke:color(display-p3 1.0000 0.4902 0.0000);stroke-opacity:1;"/>
<path d="M21.0333 20.4975L21.0581 20.5H21.083H21.0973C21.2351 20.5 21.3652 20.4578 21.452 20.425C21.5509 20.3877 21.6554 20.338 21.758 20.2836C21.9641 20.1744 22.1942 20.0297 22.4113 19.8777C22.6284 19.7257 22.8434 19.5588 23.0172 19.4021C23.1037 19.324 23.1865 19.2427 23.2558 19.1624C23.3114 19.0981 23.385 19.0045 23.434 18.8929C23.4446 18.8765 23.462 18.8508 23.4882 18.814C23.5414 18.739 23.6185 18.6351 23.7184 18.5023C23.8255 18.3602 23.9536 18.1919 24.1006 17.9989C24.2296 17.8294 24.3733 17.6407 24.5301 17.4337C25.1958 16.5549 26.0747 15.3771 26.9506 14.1017C27.8252 12.8282 28.7039 11.4474 29.3657 10.1628C30.0162 8.90017 30.5 7.65187 30.5 6.66896C30.5 6.2735 30.4153 5.87501 30.2091 5.54751L30.2033 5.53824L30.1971 5.52923C29.9175 5.12543 29.4884 4.87232 29.0702 4.72057C28.6472 4.56711 28.1892 4.5 27.7886 4.5C27.5476 4.5 27.3023 4.5227 27.0909 4.57821L27.2179 5.06181L27.093 4.57765C26.9978 4.60222 26.8981 4.62616 26.8162 4.64355C26.775 4.6523 26.742 4.65861 26.7181 4.6625C26.7104 4.66376 26.7049 4.66455 26.7014 4.66502C26.4937 4.66948 26.2375 4.75319 26.0123 4.83828C25.7547 4.93558 25.4457 5.07196 25.1094 5.23298C24.4353 5.55566 23.6244 5.99014 22.8434 6.44399C22.0636 6.89721 21.3026 7.3762 20.7317 7.78897C20.448 7.99407 20.1983 8.19205 20.0146 8.36901C19.9236 8.45672 19.836 8.55141 19.7676 8.64935C19.7105 8.73117 19.6128 8.88938 19.6128 9.08997V9.11058V9.17214L19.6278 9.23187C19.7049 9.54019 19.913 9.82151 20.1149 10.0434C20.3276 10.2771 20.5858 10.5006 20.8361 10.6923C21.0874 10.8847 21.3424 11.054 21.5556 11.1775C21.6617 11.2389 21.7641 11.2929 21.855 11.3332C21.8798 11.3442 21.9057 11.3551 21.9323 11.3653C21.8822 11.4492 21.8243 11.5493 21.7599 11.6679C20.663 13.5556 19.8561 15.0061 19.3229 16.122C18.799 17.2183 18.5 18.0673 18.5 18.7225C18.5 19.0185 18.5611 19.2965 18.7074 19.5418C18.854 19.7876 19.0641 19.9639 19.3023 20.0917C19.7533 20.3335 20.3673 20.431 21.0333 20.4975ZM23.425 18.9076C23.4249 18.9077 23.4258 18.9061 23.428 18.9025C23.4262 18.9058 23.4251 18.9076 23.425 18.9076ZM20.7404 18.9132C20.7092 18.934 20.6871 18.9467 20.6733 18.954H20.6726C20.6721 18.952 20.6716 18.95 20.6711 18.9479C20.6625 18.9098 20.6556 18.8531 20.6556 18.774C20.6556 18.4757 20.7536 18.0277 20.9322 17.4817C21.1069 16.9478 21.344 16.3633 21.59 15.8089C22.0794 14.7058 22.5868 13.76 22.6666 13.6239C23.0548 12.9957 23.2754 12.6067 23.424 12.341C23.436 12.3197 23.4473 12.2995 23.4581 12.2801C23.5665 12.0862 23.621 11.9887 23.6767 11.9074C23.8603 11.9019 24.0418 11.8585 24.1959 11.7667C24.3491 11.6754 24.5506 11.4823 24.5506 11.1813C24.5506 11.0614 24.52 10.9422 24.4543 10.8343C24.4424 10.8148 24.4299 10.7965 24.417 10.7794C24.644 10.4781 24.7725 10.3164 24.8596 10.2243C24.8785 10.2044 24.8919 10.1916 24.9007 10.1837C24.9045 10.183 24.9089 10.1822 24.9141 10.1813C25.019 10.1655 25.149 10.1329 25.2675 10.059C25.3475 10.0091 25.4439 9.92391 25.5045 9.80097C25.5346 9.78123 25.5735 9.75781 25.6191 9.7331C25.6891 9.6952 25.7607 9.66197 25.8192 9.63971C25.8455 9.6297 25.8647 9.62362 25.8767 9.62035C25.9799 9.61642 26.1712 9.58693 26.3177 9.4093C26.428 9.27569 26.4551 9.11553 26.465 9.05735C26.4653 9.05548 26.4656 9.05372 26.4659 9.05207C26.4761 8.99265 26.4857 8.91515 26.4958 8.8338C26.4988 8.81018 26.5017 8.78624 26.5048 8.76233C26.5194 8.64702 26.539 8.50176 26.5698 8.31686L26.6525 7.81918L26.1541 7.74094C26.0496 7.72454 25.9627 7.70828 25.8758 7.69201C25.8306 7.68356 25.7855 7.67512 25.7379 7.66664C25.611 7.64407 25.4672 7.62157 25.3204 7.62157C25.1278 7.62157 24.9371 7.65949 24.7416 7.76182C24.558 7.85796 24.3926 7.99942 24.2282 8.17096C23.9071 8.50604 23.4959 9.0588 22.8763 9.90787L22.8763 9.90786L22.874 9.91097C22.8177 9.98945 22.763 10.0621 22.7136 10.1245C22.6023 10.0603 22.4692 9.97641 22.3305 9.88309C21.9891 9.65334 21.6935 9.41976 21.6037 9.31898C21.6026 9.31771 21.6016 9.31646 21.6005 9.31521C21.6342 9.28702 21.6784 9.25374 21.7363 9.21419L21.7369 9.21377C23.4526 8.03628 24.8106 7.22437 25.8662 6.7087C26.9365 6.18585 27.6431 5.99451 28.0739 5.99451C28.3409 5.99451 28.4385 6.06561 28.4781 6.1092C28.5259 6.16173 28.5869 6.28153 28.5869 6.54533C28.5869 6.86791 28.4943 7.30999 28.3019 7.8599C28.112 8.40303 27.8357 9.02101 27.4945 9.6856C26.8121 11.0146 25.886 12.4989 24.9201 13.8932C23.9545 15.2871 22.957 16.5796 22.1365 17.5251C21.7253 17.999 21.3659 18.3772 21.082 18.6357C20.9394 18.7656 20.8254 18.8566 20.7404 18.9132ZM25.887 9.61788C25.887 9.61789 25.8863 9.61806 25.8848 9.61831L25.887 9.61788ZM22.9265 10.2326C22.9267 10.2328 22.9239 10.232 22.9178 10.2297C22.9233 10.2313 22.9264 10.2324 22.9265 10.2326ZM22.1203 11.0562C22.1229 11.0501 22.1239 11.0491 22.1214 11.054C22.1211 11.0547 22.1207 11.0554 22.1203 11.0562Z" fill="#FF7D00" stroke="#FF7D00" style="fill:#FF7D00;fill:color(display-p3 1.0000 0.4902 0.0000);fill-opacity:1;stroke:#FF7D00;stroke:color(display-p3 1.0000 0.4902 0.0000);stroke-opacity:1;"/>
<path d="M5.80478 21.5H5.86215L5.91804 21.487C5.91982 21.4866 5.92221 21.4861 5.92517 21.4854C5.95723 21.4784 6.05548 21.4569 6.1516 21.4051C6.27014 21.3413 6.3563 21.2525 6.42492 21.1586C6.54287 20.9973 6.6665 20.7368 6.83905 20.3375C7.04174 19.8686 7.34214 19.133 7.81336 17.9792C8.17332 17.0978 8.63296 15.9723 9.22488 14.5352L9.22583 14.5328C9.24227 14.4923 9.25661 14.4538 9.26771 14.4239L9.27008 14.4175C9.27632 14.4008 9.28139 14.3872 9.28581 14.3758C9.31349 14.3724 9.35446 14.3694 9.41275 14.3694C9.66355 14.3694 10.1038 14.4269 10.8906 14.5845C11.6666 14.7399 12.7455 14.9853 14.255 15.3448C14.9842 15.5225 15.2428 15.677 15.3737 15.7787C15.4275 15.8205 15.4602 15.8519 15.5065 15.8965C15.5314 15.9204 15.5602 15.9481 15.5983 15.9833C15.7004 16.0774 15.8258 16.179 16.0129 16.271L16.0239 16.2764L16.0352 16.2813C16.174 16.3412 16.3436 16.3865 16.5267 16.3865C16.7845 16.3865 17.0901 16.2983 17.2998 16.0316C17.4403 15.8585 17.4984 15.6559 17.4984 15.4754C17.4984 15.1212 17.2796 14.8599 17.0858 14.6929C16.8816 14.5168 16.6123 14.3642 16.3222 14.2297C15.7374 13.9588 14.9563 13.7119 14.1374 13.4938C12.7949 13.1363 11.2832 12.8392 10.2217 12.6379C10.3323 12.4098 10.4622 12.1457 10.596 11.8835C10.7401 11.6009 10.8857 11.3265 11.0137 11.1056C11.0778 10.995 11.1348 10.9025 11.1829 10.8312C11.2068 10.7958 11.2267 10.7683 11.2426 10.748C11.2509 10.7374 11.2568 10.7303 11.2606 10.726C11.2672 10.7216 11.2854 10.7093 11.3208 10.6886C11.3807 10.6538 11.4648 10.6092 11.5743 10.5547C11.7926 10.446 12.087 10.3098 12.4392 10.1502C12.6166 10.0697 12.8079 9.98364 13.0097 9.89285C13.6025 9.62617 14.2856 9.31886 14.9716 8.99425C15.8907 8.55937 16.833 8.08518 17.5952 7.62192C17.976 7.39045 18.3224 7.15536 18.6021 6.92291C18.8722 6.69838 19.1225 6.44219 19.259 6.15973L19.2608 6.1558C19.412 5.83579 19.5 5.50567 19.5 5.18415C19.5 4.19806 18.7489 3.52256 17.8307 3.11885C16.8951 2.70744 15.6377 2.5 14.2701 2.5C12.0179 2.5 9.36921 3.05547 7.14242 4.29763C6.24829 4.79457 5.11668 5.55945 4.20084 6.41718C3.74283 6.84614 3.32588 7.31027 3.02035 7.78748C2.71771 8.26016 2.5 8.78375 2.5 9.3212C2.5 9.85993 2.72205 10.3512 3.17552 10.7593L3.93366 11.4414L4.00861 10.4243C4.04719 9.90077 4.30798 9.25731 4.81543 8.56982C5.31884 7.8878 6.04473 7.19072 6.96312 6.56395C8.79919 5.31091 11.3726 4.36081 14.3849 4.36081C14.9043 4.36081 15.4333 4.38574 15.9726 4.4475L15.9726 4.44751L15.9755 4.44783C16.785 4.53568 17.2908 4.66938 17.5797 4.80992C17.7215 4.8789 17.7851 4.93718 17.8102 4.9682C17.8215 4.98217 17.8241 4.98937 17.8242 4.98968L17.8242 4.98968C17.8244 4.99006 17.8243 4.98993 17.8242 4.98961C17.8242 4.98931 17.8243 4.98979 17.8243 4.99144C17.8243 5.00539 17.816 5.0746 17.7188 5.20919C17.6247 5.3396 17.474 5.49382 17.2626 5.66707C16.8404 6.01303 16.2399 6.38363 15.5548 6.74661C14.7881 7.15281 13.9412 7.53603 13.1705 7.85184C13.296 7.60091 13.3988 7.33894 13.476 7.06893L13.4784 7.06044L13.4805 7.05187C13.5196 6.89414 13.559 6.71457 13.559 6.53319C13.559 6.27773 13.4932 6.02537 13.3362 5.82495C13.1737 5.61744 12.9321 5.49358 12.6637 5.49358C12.3265 5.49358 12.0351 5.68042 11.8368 5.95907C11.297 6.7043 10.9563 7.28285 10.7055 7.74324C10.6137 7.91182 10.5384 8.05551 10.4723 8.18143C10.3491 8.41649 10.2583 8.58961 10.1535 8.74707C10.0167 8.95255 9.87461 9.09771 9.61859 9.24329C9.34187 9.40063 8.92866 9.56028 8.2368 9.76722C7.63155 9.9475 7.11707 10.2036 6.74402 10.5301C6.36908 10.8582 6.10797 11.2869 6.10797 11.788C6.10797 12.5211 6.6605 13.1507 7.49643 13.6292C7.48119 13.6867 7.45904 13.7596 7.42775 13.8525C7.34772 14.0901 7.21931 14.4251 7.02632 14.9098C6.89413 15.2417 6.73162 15.6438 6.53587 16.1282C6.16846 17.0373 5.68392 18.2363 5.06276 19.8053C4.94232 20.0812 4.88406 20.3397 4.88406 20.5632C4.88406 20.8459 4.98028 21.0975 5.173 21.2748C5.35412 21.4415 5.57469 21.5 5.75378 21.5H5.80478ZM8.04008 12.0217C8.00768 12.007 7.97818 11.9924 7.95159 11.9782C8.10234 11.893 8.3393 11.7686 8.58966 11.6497C8.48772 11.8637 8.41456 12.0164 8.35927 12.1279C8.35808 12.1303 8.35689 12.1327 8.35572 12.135C8.2555 12.1075 8.14325 12.0685 8.04008 12.0217ZM7.78938 11.8648C7.78951 11.8648 7.7907 11.8661 7.79256 11.8687C7.79018 11.8661 7.78925 11.8648 7.78938 11.8648Z" fill="#FF7D00" stroke="#FF7D00" style="fill:#FF7D00;fill:color(display-p3 1.0000 0.4902 0.0000);fill-opacity:1;stroke:#FF7D00;stroke:color(display-p3 1.0000 0.4902 0.0000);stroke-opacity:1;"/>
</svg>
