<svg width="24" height="24" viewBox="0 0 24 24" fill="none" xmlns="http://www.w3.org/2000/svg">
<path d="M11.0234 8.83789L15.4841 13.199L13.5806 18.8199C13.4739 19.135 13.2174 19.3764 12.8966 19.464L2.71502 22.2408L8.8762 16.0795C9.4332 16.342 10.1192 16.2454 10.5815 15.7885C11.1707 15.2061 11.1735 14.2591 10.5877 13.6734C10.0019 13.0875 9.0494 13.0848 8.4602 13.6671C7.99351 14.1284 7.89475 14.8184 8.165 15.3765L2.00781 21.5337L4.78303 11.3579C4.87144 11.0337 5.1168 10.7756 5.43606 10.6708L11.0234 8.83789Z" fill="#5E79DD" fill-opacity="0.4" style="fill:#5E79DD;fill:color(display-p3 0.3686 0.4745 0.8667);fill-opacity:0.4;"/>
<path d="M14.3125 2.54896C14.0554 2.29183 13.6185 2.38647 13.4908 2.72697L12.9922 4.05697L20.1811 11.2459L21.5149 10.7551C21.8575 10.6291 21.954 10.1904 21.6959 9.93233L14.3125 2.54896Z" fill="#567AFF" style="fill:#567AFF;fill:color(display-p3 0.3355 0.4767 1.0000);fill-opacity:1;"/>
<path d="M11.0229 8.83809L11.0192 8.83929C10.9869 7.64638 11.4303 6.44334 12.3487 5.53564L18.7128 11.8997C17.8198 12.7823 16.6488 13.2168 15.4818 13.2042L15.4836 13.1992L11.0229 8.83809Z" fill="#567AFF" style="fill:#567AFF;fill:color(display-p3 0.3355 0.4767 1.0000);fill-opacity:1;"/>
</svg>
